<?xml version="1.0" encoding="utf-8"?>
<!-- Generator: Adobe Illustrator 27.7.0, SVG Export Plug-In . SVG Version: 6.00 Build 0)  -->
<svg version="1.1" id="Layer_1" xmlns="http://www.w3.org/2000/svg" xmlns:xlink="http://www.w3.org/1999/xlink" x="0px" y="0px"
	 viewBox="0 0 188 56" style="enable-background:new 0 0 188 56;" xml:space="preserve">
<style type="text/css">
	.st0{fill:#FFFFFF;}
</style>
<g>
	<g>
		<circle class="st0" cx="12" cy="9.4" r="8.1"/>
		<circle class="st0" cx="34" cy="9.4" r="8.1"/>
		<path class="st0" d="M14,34.3c-1.8-1.8-4.7-1.8-6.5,0c-1.8,1.8-1.8,4.7,0,6.5l12.2,12.2c1.8,1.8,4.7,1.8,6.5,0l15.5-15.6
			c4-4,4-10.6,0-14.6c-2.3-2.3-5.5-3.3-8.5-3c0.7,0.3,1.4,0.8,2,1.4c2.7,2.7,2.7,7,0,9.7L23,43.3L14,34.3z"/>
		<path class="st0" d="M15.6,32.6c-2.7-2.7-7-2.7-9.7,0c-1.2,1.2-1.9,2.9-2,4.5c-3.8-4-3.7-10.4,0.2-14.4c4-4,10.6-4,14.6,0L23,27
			l4.1-4.2c1.8-1.8,4.7-1.8,6.5,0c1.8,1.8,1.8,4.7,0,6.5L23,39.9L15.6,32.6z"/>
	</g>
</g>
<g>
	<path class="st0" d="M61,43.7V46h2.8v0.6H61v2.8h-0.7V43h4v0.6H61z"/>
	<path class="st0" d="M70.8,48.9c-0.4,0.4-0.9,0.6-1.6,0.6c-0.7,0-1.2-0.2-1.6-0.6C67,48.3,67,47.7,67,46.3c0-1.5,0-2,0.6-2.6
		c0.4-0.4,0.9-0.6,1.6-0.6c0.7,0,1.2,0.2,1.6,0.6c0.6,0.6,0.6,1.2,0.6,2.6C71.4,47.7,71.4,48.3,70.8,48.9z M70.3,44.1
		c-0.3-0.3-0.7-0.4-1.1-0.4s-0.8,0.2-1.1,0.4c-0.4,0.4-0.4,0.9-0.4,2.2c0,1.3,0,1.8,0.4,2.2c0.3,0.3,0.7,0.5,1.1,0.5
		s0.8-0.2,1.1-0.5c0.4-0.4,0.4-0.9,0.4-2.2C70.8,44.9,70.7,44.5,70.3,44.1z"/>
	<path class="st0" d="M78.5,49.5l-1.5-2.8h-1.5v2.8h-0.7V43h2.5c1.1,0,1.9,0.7,1.9,1.8c0,0.9-0.6,1.5-1.4,1.7l1.5,2.9H78.5z
		 M77.2,43.7h-1.7V46h1.7c0.7,0,1.3-0.4,1.3-1.2C78.5,44.1,78,43.7,77.2,43.7z"/>
	<path class="st0" d="M90.3,49.5L89.8,48H87l-0.5,1.4h-0.7l2.4-6.4h0.6l2.3,6.4H90.3z M88.4,44l-1.2,3.4h2.4L88.4,44z"/>
	<path class="st0" d="M98.7,49.5v-4.9l-1.8,3.9h-0.6l-1.8-3.9v4.9h-0.7V43h0.7l2.1,4.5l2-4.5h0.7v6.4H98.7z"/>
	<path class="st0" d="M106.8,49.5l-0.5-1.4h-2.8l-0.5,1.4h-0.7l2.4-6.4h0.6l2.3,6.4H106.8z M104.9,44l-1.2,3.4h2.4L104.9,44z"/>
	<path class="st0" d="M109.9,49.5v-0.6l3.2-5.1H110V43h3.8v0.6l-3.2,5.2h3.2v0.6H109.9z"/>
	<path class="st0" d="M117.1,49.5V43h0.7v6.4H117.1z"/>
	<path class="st0" d="M125.6,49.5l-3.4-5.1v5.1h-0.7V43h0.6l3.4,5.1V43h0.7v6.4H125.6z"/>
	<path class="st0" d="M133.6,48.8c-0.5,0.5-1.1,0.7-1.7,0.7c-0.7,0-1.2-0.2-1.6-0.6c-0.6-0.6-0.6-1.2-0.6-2.6c0-1.5,0-2,0.6-2.6
		c0.4-0.4,0.9-0.6,1.6-0.6c1.2,0,2.1,0.8,2.2,1.9h-0.7c-0.2-0.8-0.8-1.3-1.6-1.3c-0.4,0-0.8,0.2-1.1,0.4c-0.4,0.4-0.4,0.9-0.4,2.2
		c0,1.3,0,1.8,0.4,2.2c0.3,0.3,0.7,0.5,1.1,0.5c0.5,0,0.9-0.2,1.2-0.5c0.3-0.3,0.4-0.7,0.4-1.2v-0.5h-1.6v-0.6h2.3v1
		C134.1,47.9,134,48.3,133.6,48.8z"/>
	<path class="st0" d="M143.9,46.8h-1.7v2.6h-0.7V43h2.4c1.2,0,2,0.7,2,1.9S145.1,46.8,143.9,46.8z M143.9,43.7h-1.6v2.5h1.6
		c0.8,0,1.3-0.4,1.3-1.3C145.2,44.1,144.7,43.7,143.9,43.7z"/>
	<path class="st0" d="M149,49.5V43h4v0.6h-3.3v2.3h2.8v0.6h-2.8v2.3h3.3v0.6H149z"/>
	<path class="st0" d="M159.8,48.9c-0.4,0.4-0.9,0.6-1.6,0.6c-0.7,0-1.2-0.2-1.6-0.6c-0.6-0.6-0.6-1.2-0.6-2.6c0-1.5,0-2,0.6-2.6
		c0.4-0.4,0.9-0.6,1.6-0.6c0.7,0,1.2,0.2,1.6,0.6c0.6,0.6,0.6,1.2,0.6,2.6C160.5,47.7,160.4,48.3,159.8,48.9z M159.3,44.1
		c-0.3-0.3-0.7-0.4-1.1-0.4c-0.4,0-0.8,0.2-1.1,0.4c-0.4,0.4-0.4,0.9-0.4,2.2c0,1.3,0,1.8,0.4,2.2c0.3,0.3,0.7,0.5,1.1,0.5
		c0.4,0,0.8-0.2,1.1-0.5c0.4-0.4,0.4-0.9,0.4-2.2C159.8,44.9,159.7,44.5,159.3,44.1z"/>
	<path class="st0" d="M166.3,46.8h-1.7v2.6h-0.7V43h2.4c1.2,0,2,0.7,2,1.9S167.4,46.8,166.3,46.8z M166.2,43.7h-1.6v2.5h1.6
		c0.8,0,1.3-0.4,1.3-1.3C167.6,44.1,167,43.7,166.2,43.7z"/>
	<path class="st0" d="M171.3,49.5V43h0.7v5.8h3.3v0.6H171.3z"/>
	<path class="st0" d="M178.3,49.5V43h4v0.6H179v2.3h2.8v0.6H179v2.3h3.3v0.6H178.3z"/>
</g>
<g>
	<path class="st0" d="M56.9,7.6h4.4v7.6c1.1-0.4,2.4-0.6,3.9-0.6c1.4,0,2.6,0.2,3.8,0.5c1.2,0.4,2.2,0.9,3.1,1.7
		c0.9,0.8,1.6,1.8,2.1,3c0.5,1.2,0.8,2.7,0.8,4.3c0,1.8-0.3,3.3-0.8,4.5c-0.5,1.2-1.3,2.2-2.2,3c-0.9,0.8-2.1,1.3-3.4,1.7
		c-1.3,0.3-2.7,0.5-4.3,0.5c-1.3,0-2.6-0.1-3.9-0.3c-1.3-0.2-2.4-0.5-3.5-0.8V7.6z M70.4,24.3c0-1.2-0.2-2.3-0.5-3.1
		c-0.4-0.8-0.8-1.5-1.4-2s-1.2-0.8-1.9-1.1c-0.7-0.2-1.5-0.3-2.2-0.3c-0.7,0-1.4,0.1-1.9,0.2c-0.5,0.1-0.9,0.3-1.2,0.4v11.6
		c0.5,0.2,1,0.3,1.6,0.4c0.6,0.1,1.1,0.1,1.5,0.1c0.8,0,1.5-0.1,2.2-0.3c0.7-0.2,1.4-0.5,1.9-1s1-1.1,1.4-1.9
		C70.2,26.5,70.4,25.5,70.4,24.3z"/>
	<path class="st0" d="M95.9,32.3c-0.5,0.2-1,0.4-1.6,0.6c-0.6,0.2-1.3,0.3-2.1,0.5c-0.8,0.1-1.6,0.2-2.4,0.3
		c-0.9,0.1-1.7,0.1-2.6,0.1c-1.2,0-2.4-0.1-3.5-0.4c-1.1-0.2-2.1-0.6-2.9-1.2c-0.8-0.6-1.5-1.4-2-2.3c-0.5-1-0.8-2.2-0.8-3.7V15h4.4
		v11c0,1,0.1,1.8,0.4,2.4c0.3,0.6,0.6,1.1,1.1,1.4c0.4,0.3,0.9,0.5,1.5,0.6c0.6,0.1,1.2,0.2,1.8,0.2c0.8,0,1.6-0.1,2.4-0.2
		c0.8-0.1,1.4-0.3,1.9-0.6V15h4.4V32.3z"/>
	<path class="st0" d="M117.4,32.6c-1.1,0.4-2.2,0.6-3.5,0.8c-1.3,0.2-2.6,0.3-3.8,0.3c-1.5,0-3-0.2-4.3-0.5
		c-1.3-0.3-2.4-0.9-3.4-1.7c-0.9-0.8-1.7-1.8-2.2-3c-0.5-1.2-0.8-2.7-0.8-4.5c0-1.7,0.3-3.1,0.8-4.3c0.5-1.2,1.2-2.2,2.1-3
		c0.9-0.8,1.9-1.3,3.1-1.7c1.2-0.4,2.5-0.5,3.8-0.5c1.5,0,2.8,0.2,3.9,0.6V7.6h4.4V32.6z M103.9,24.3c0,1.2,0.2,2.3,0.5,3.1
		c0.4,0.8,0.8,1.5,1.4,1.9s1.2,0.8,1.9,1c0.7,0.2,1.5,0.3,2.2,0.3c0.4,0,0.9,0,1.5-0.1c0.6-0.1,1.1-0.2,1.6-0.4V18.5
		c-0.3-0.1-0.7-0.3-1.2-0.4c-0.5-0.2-1.2-0.2-1.9-0.2c-0.7,0-1.5,0.1-2.2,0.3c-0.7,0.2-1.4,0.6-1.9,1.1s-1,1.1-1.4,2
		C104.1,22,103.9,23,103.9,24.3z"/>
	<path class="st0" d="M138.9,32.6c-1.1,0.4-2.2,0.6-3.5,0.8c-1.3,0.2-2.6,0.3-3.8,0.3c-1.5,0-3-0.2-4.3-0.5
		c-1.3-0.3-2.4-0.9-3.4-1.7c-0.9-0.8-1.7-1.8-2.2-3c-0.5-1.2-0.8-2.7-0.8-4.5c0-1.7,0.3-3.1,0.8-4.3c0.5-1.2,1.2-2.2,2.1-3
		c0.9-0.8,1.9-1.3,3.1-1.7c1.2-0.4,2.5-0.5,3.8-0.5c1.5,0,2.8,0.2,3.9,0.6V7.6h4.4V32.6z M125.4,24.3c0,1.2,0.2,2.3,0.5,3.1
		c0.4,0.8,0.8,1.5,1.4,1.9s1.2,0.8,1.9,1c0.7,0.2,1.5,0.3,2.2,0.3c0.4,0,0.9,0,1.5-0.1c0.6-0.1,1.1-0.2,1.6-0.4V18.5
		c-0.3-0.1-0.7-0.3-1.2-0.4c-0.5-0.2-1.2-0.2-1.9-0.2c-0.7,0-1.5,0.1-2.2,0.3c-0.7,0.2-1.4,0.6-1.9,1.1s-1,1.1-1.4,2
		C125.6,22,125.4,23,125.4,24.3z"/>
	<path class="st0" d="M142.6,8.6c0-0.8,0.3-1.4,0.8-1.9c0.5-0.5,1.2-0.8,1.9-0.8c0.7,0,1.4,0.3,1.9,0.8c0.5,0.5,0.8,1.2,0.8,1.9
		c0,0.7-0.3,1.4-0.8,1.9c-0.5,0.5-1.2,0.8-1.9,0.8c-0.8,0-1.4-0.3-1.9-0.8C142.9,9.9,142.6,9.3,142.6,8.6z M143.1,15h4.4v18.4h-4.4
		V15z"/>
	<path class="st0" d="M169,23.4c0,0.3,0,0.6-0.1,0.9c0,0.4-0.1,0.7-0.1,1h-13.6c0,1.9,0.6,3.2,1.7,4c1.1,0.8,2.6,1.2,4.5,1.2
		c1.2,0,2.3-0.1,3.5-0.3s2-0.5,2.7-0.8l0.9,3.1c-1,0.4-2.1,0.7-3.3,0.9c-1.2,0.2-2.5,0.3-3.9,0.3c-1.6,0-3-0.2-4.4-0.5
		c-1.3-0.4-2.5-0.9-3.4-1.7c-1-0.8-1.7-1.8-2.2-3c-0.5-1.2-0.8-2.7-0.8-4.5c0-1.7,0.2-3.2,0.7-4.4c0.5-1.2,1.1-2.2,2-3
		c0.8-0.8,1.8-1.3,3-1.7c1.1-0.3,2.4-0.5,3.7-0.5c1.4,0,2.6,0.2,3.7,0.5c1.1,0.3,2.1,0.9,2.9,1.6c0.8,0.7,1.4,1.7,1.9,2.8
		C168.8,20.5,169,21.9,169,23.4z M156.3,22.9h8.1c0-2-0.4-3.3-1.2-4.1c-0.8-0.8-1.8-1.2-3.2-1.2c-0.6,0-1.2,0.1-1.8,0.3
		c-0.6,0.2-1.1,0.5-1.5,0.9c-0.4,0.4-0.8,0.9-1,1.5c-0.3,0.6-0.4,1.4-0.4,2.3L156.3,22.9z"/>
	<path class="st0" d="M172.1,29.2c0.8,0.4,1.7,0.7,2.7,0.9c1,0.2,2.1,0.3,3.3,0.3c0.6,0,1.1,0,1.7-0.1s1-0.2,1.4-0.4
		c0.4-0.2,0.7-0.4,1-0.7c0.2-0.3,0.4-0.6,0.4-1.1c0-0.6-0.3-1.1-0.8-1.4c-0.5-0.3-1.2-0.6-2-0.8c-0.8-0.2-1.6-0.4-2.6-0.6
		c-0.9-0.2-1.8-0.5-2.6-0.9c-0.8-0.4-1.4-0.9-2-1.6c-0.5-0.7-0.8-1.6-0.8-2.8c0-1,0.2-1.9,0.6-2.6c0.4-0.7,1-1.3,1.6-1.8
		c0.7-0.5,1.5-0.8,2.5-1c1-0.2,2-0.3,3.2-0.3c1.3,0,2.5,0.1,3.5,0.4c1.1,0.2,2,0.6,2.9,1l-0.6,3.3c-0.7-0.4-1.5-0.7-2.4-1
		c-0.9-0.2-1.9-0.4-3-0.4c-0.5,0-1,0-1.4,0.1c-0.5,0.1-0.9,0.2-1.2,0.4c-0.4,0.2-0.6,0.4-0.9,0.7c-0.2,0.3-0.3,0.6-0.3,1
		c0,0.6,0.3,1.1,0.8,1.4c0.5,0.3,1.2,0.5,2,0.7c0.8,0.2,1.7,0.4,2.6,0.5c0.9,0.2,1.8,0.5,2.6,0.9c0.8,0.4,1.5,0.9,2,1.6
		c0.5,0.7,0.8,1.6,0.8,2.9c0,1.1-0.2,2.1-0.7,2.8c-0.5,0.7-1.1,1.3-1.9,1.7c-0.8,0.4-1.7,0.7-2.7,0.9c-1,0.2-2,0.3-3.1,0.3
		c-1.4,0-2.8-0.1-4-0.4c-1.2-0.2-2.3-0.5-3.1-0.9L172.1,29.2z"/>
</g>
</svg>
