<?xml version="1.0" encoding="utf-8"?>
<!-- Generator: Adobe Illustrator 28.0.0, SVG Export Plug-In . SVG Version: 6.00 Build 0)  -->
<svg version="1.1" id="Layer_1" xmlns="http://www.w3.org/2000/svg" xmlns:xlink="http://www.w3.org/1999/xlink" x="0px" y="0px"
	 viewBox="0 0 118 26" style="enable-background:new 0 0 118 26;" xml:space="preserve">
<style type="text/css">
	.st0{fill:#FFFFFF;}
</style>
<g>
	<g>
		<g>
			<path class="st0" d="M10,3.9c1.4,0,2.5,0.2,3.5,0.4c1,0.3,1.7,0.7,2.3,1.2c0.6,0.5,1,1.1,1.3,1.8c0.3,0.7,0.4,1.4,0.4,2.2
				c0,1.1-0.3,2-0.8,2.8c-0.5,0.8-1.4,1.4-2.7,1.8c1.5,0.4,2.6,1,3.2,1.9c0.6,0.9,0.9,2,0.9,3.1c0,0.8-0.1,1.6-0.4,2.3
				c-0.3,0.7-0.7,1.3-1.3,1.8c-0.6,0.5-1.4,0.9-2.4,1.2c-1,0.3-2.2,0.4-3.5,0.4H1.2v-21H10z M5.2,6.8v5.9h4.3c1.5,0,2.5-0.3,3.1-0.8
				c0.6-0.6,0.9-1.3,0.9-2.1c0-0.8-0.3-1.5-0.9-2.1C12,7.1,10.9,6.8,9.5,6.8H5.2z M5.2,15.5v6.4H10c1.6,0,2.6-0.3,3.2-0.9
				c0.6-0.6,0.9-1.4,0.9-2.3c0-0.9-0.3-1.7-0.9-2.3c-0.6-0.6-1.7-0.9-3.2-0.9H5.2z"/>
			<path class="st0" d="M36.7,24c-0.4,0.2-0.9,0.3-1.4,0.5c-0.6,0.2-1.2,0.3-1.8,0.4c-0.7,0.1-1.4,0.2-2.1,0.3s-1.5,0.1-2.3,0.1
				c-1.1,0-2.1-0.1-3-0.3c-1-0.2-1.8-0.6-2.5-1.1c-0.7-0.5-1.3-1.2-1.8-2C21.2,21,21,19.9,21,18.6V8.7h3.9v9.7
				c0,0.9,0.1,1.6,0.4,2.1c0.2,0.5,0.6,0.9,0.9,1.2c0.4,0.3,0.8,0.5,1.3,0.5c0.5,0.1,1,0.1,1.5,0.1c0.7,0,1.4-0.1,2.1-0.2
				c0.7-0.1,1.2-0.3,1.7-0.5v-13h3.9V24z"/>
			<path class="st0" d="M55.7,24.3c-0.9,0.3-2,0.6-3.1,0.7c-1.1,0.2-2.2,0.3-3.4,0.3c-1.4,0-2.6-0.2-3.8-0.4c-1.2-0.3-2.1-0.8-3-1.5
				c-0.8-0.7-1.5-1.6-2-2.6c-0.5-1.1-0.7-2.4-0.7-4c0-1.5,0.2-2.8,0.7-3.8c0.4-1.1,1-1.9,1.8-2.6s1.7-1.2,2.7-1.5
				c1-0.3,2.2-0.5,3.4-0.5c1.4,0,2.5,0.2,3.5,0.6V2.3h3.9V24.3z M43.7,16.9c0,1.1,0.2,2,0.5,2.7c0.3,0.7,0.7,1.3,1.2,1.7
				c0.5,0.4,1.1,0.7,1.7,0.9c0.6,0.2,1.3,0.2,2,0.2c0.4,0,0.8,0,1.3-0.1c0.5-0.1,1-0.2,1.4-0.4V11.8c-0.2-0.1-0.6-0.2-1-0.4
				c-0.5-0.1-1-0.2-1.7-0.2c-0.6,0-1.3,0.1-1.9,0.3c-0.6,0.2-1.2,0.5-1.7,0.9c-0.5,0.4-0.9,1-1.2,1.7C43.9,14.9,43.7,15.8,43.7,16.9
				z"/>
			<path class="st0" d="M74.6,24.3c-0.9,0.3-2,0.6-3.1,0.7c-1.1,0.2-2.2,0.3-3.4,0.3c-1.4,0-2.6-0.2-3.8-0.4c-1.2-0.3-2.1-0.8-3-1.5
				c-0.8-0.7-1.5-1.6-2-2.6c-0.5-1.1-0.7-2.4-0.7-4c0-1.5,0.2-2.8,0.7-3.8c0.4-1.1,1-1.9,1.8-2.6s1.7-1.2,2.7-1.5
				c1-0.3,2.2-0.5,3.4-0.5c1.4,0,2.5,0.2,3.5,0.6V2.3h3.9V24.3z M62.7,16.9c0,1.1,0.2,2,0.5,2.7c0.3,0.7,0.7,1.3,1.2,1.7
				c0.5,0.4,1.1,0.7,1.7,0.9c0.6,0.2,1.3,0.2,2,0.2c0.4,0,0.8,0,1.3-0.1c0.5-0.1,1-0.2,1.4-0.4V11.8c-0.2-0.1-0.6-0.2-1-0.4
				c-0.5-0.1-1-0.2-1.7-0.2c-0.6,0-1.3,0.1-1.9,0.3c-0.6,0.2-1.2,0.5-1.7,0.9c-0.5,0.4-0.9,1-1.2,1.7C62.8,14.9,62.7,15.8,62.7,16.9
				z"/>
			<path class="st0" d="M101.1,16.2c0,0.2,0,0.5-0.1,0.8c0,0.3-0.1,0.6-0.1,0.9H89c0,1.6,0.5,2.8,1.5,3.5c1,0.7,2.3,1.1,4,1.1
				c1,0,2.1-0.1,3.1-0.3c1-0.2,1.8-0.4,2.4-0.7l0.8,2.8c-0.8,0.4-1.8,0.6-2.9,0.8c-1.1,0.2-2.2,0.3-3.4,0.3c-1.4,0-2.7-0.2-3.8-0.5
				c-1.2-0.3-2.2-0.8-3-1.5c-0.9-0.7-1.5-1.6-2-2.6c-0.5-1.1-0.7-2.4-0.7-4c0-1.5,0.2-2.8,0.6-3.9c0.4-1.1,1-2,1.7-2.6
				c0.7-0.7,1.6-1.2,2.6-1.5c1-0.3,2.1-0.4,3.3-0.4c1.2,0,2.3,0.1,3.3,0.4c1,0.3,1.8,0.8,2.5,1.4c0.7,0.6,1.2,1.5,1.6,2.4
				C100.9,13.6,101.1,14.8,101.1,16.2z M89.8,15.7h7.1c0-1.7-0.3-2.9-1-3.6c-0.7-0.7-1.6-1-2.8-1c-0.6,0-1.1,0.1-1.6,0.2
				c-0.5,0.2-0.9,0.4-1.3,0.7c-0.4,0.3-0.7,0.8-0.9,1.3c-0.2,0.6-0.3,1.5-0.3,2.3H89.8z"/>
			<path class="st0" d="M103.7,21.2c0.7,0.3,1.5,0.6,2.4,0.8c0.9,0.2,1.9,0.3,2.9,0.3c0.5,0,1,0,1.5-0.1c0.5-0.1,0.9-0.2,1.2-0.3
				s0.6-0.4,0.8-0.6c0.2-0.3,0.3-0.6,0.3-0.9c0-0.5-0.2-0.9-0.7-1.2c-0.5-0.3-1-0.5-1.7-0.7c-0.7-0.2-1.4-0.3-2.3-0.5
				c-0.8-0.2-1.6-0.4-2.3-0.7c-0.7-0.3-1.3-0.8-1.7-1.4c-0.5-0.6-0.7-1.4-0.7-2.5c0-0.9,0.2-1.6,0.5-2.3c0.4-0.6,0.8-1.1,1.4-1.5
				c0.6-0.4,1.3-0.7,2.2-0.9c0.9-0.2,1.8-0.3,2.8-0.3c1.1,0,2.2,0.1,3.1,0.3c0.9,0.2,1.8,0.5,2.6,0.8l-0.6,2.9
				c-0.6-0.4-1.4-0.6-2.1-0.8c-0.8-0.2-1.7-0.3-2.7-0.3c-0.4,0-0.9,0-1.3,0.1c-0.4,0.1-0.8,0.2-1.1,0.3c-0.3,0.2-0.6,0.4-0.7,0.6
				c-0.2,0.2-0.3,0.5-0.3,0.9c0,0.5,0.2,0.9,0.7,1.2c0.5,0.3,1,0.5,1.7,0.6c0.7,0.2,1.5,0.3,2.3,0.5c0.8,0.2,1.6,0.4,2.3,0.7
				c0.7,0.3,1.3,0.8,1.7,1.4s0.7,1.4,0.7,2.5c0,1-0.2,1.8-0.6,2.5s-1,1.2-1.6,1.5c-0.7,0.4-1.5,0.6-2.3,0.8
				c-0.9,0.2-1.8,0.2-2.7,0.2c-1.3,0-2.4-0.1-3.5-0.3c-1.1-0.2-2-0.5-2.8-0.8L103.7,21.2z"/>
		</g>
	</g>
	<g>
		<rect x="78.3" y="8.7" class="st0" width="3.9" height="16.2"/>
		<path class="st0" d="M80.2,5.5c0.6,0,1.2-0.2,1.7-0.7c0.5-0.5,0.7-1,0.7-1.7c0-0.7-0.2-1.2-0.7-1.7c-0.5-0.5-1-0.7-1.7-0.7
			c-0.7,0-1.2,0.2-1.7,0.7c-0.5,0.5-0.7,1-0.7,1.7c0,0.6,0.2,1.2,0.7,1.7C79,5.2,79.5,5.5,80.2,5.5z"/>
	</g>
</g>
</svg>
