<?xml version="1.0" encoding="utf-8"?>
<!-- Generator: Adobe Illustrator 27.0.0, SVG Export Plug-In . SVG Version: 6.00 Build 0)  -->
<svg version="1.1" id="Layer_1" xmlns="http://www.w3.org/2000/svg" xmlns:xlink="http://www.w3.org/1999/xlink" x="0px" y="0px"
	 viewBox="0 0 28 14" style="enable-background:new 0 0 28 14;" xml:space="preserve">
<style type="text/css">
	.st0{fill:#FB0002;}
	.st1{fill:#66CC33;}
	.st2{fill:#1B67DB;}
	.st3{fill:#FFDD17;}
	.st4{fill:#00B7FF;}
</style>
<circle class="st0" cx="7.1" cy="7" r="6.9"/>
<circle class="st1" cx="14" cy="7" r="6.9"/>
<circle class="st2" cx="20.9" cy="7" r="6.9"/>
<path class="st3" d="M10.5,13c2.1-1.2,3.5-3.4,3.5-6c0-2.6-1.4-4.8-3.5-6C8.5,2.2,7.1,4.4,7.1,7C7.1,9.6,8.5,11.8,10.5,13z"/>
<path class="st4" d="M17.5,13c2.1-1.2,3.5-3.4,3.5-6s-1.4-4.8-3.5-6C15.4,2.2,14,4.4,14,7C14,9.6,15.4,11.8,17.5,13z"/>
</svg>
