<?xml version="1.0" encoding="utf-8"?>
<!-- Generator: Adobe Illustrator 28.0.0, SVG Export Plug-In . SVG Version: 6.00 Build 0)  -->
<svg version="1.1" id="Layer_1" xmlns="http://www.w3.org/2000/svg" xmlns:xlink="http://www.w3.org/1999/xlink" x="0px" y="0px"
	 viewBox="0 0 42 50" style="enable-background:new 0 0 42 50;" xml:space="preserve">
<style type="text/css">
	.st0{fill:#FFFFFF;}
</style>
<g>
	<g>
		<circle class="st0" cx="10.8" cy="7.8" r="7.6"/>
		<circle class="st0" cx="31.4" cy="7.8" r="7.6"/>
		<path class="st0" d="M12.7,31c-1.7-1.7-4.4-1.7-6,0c-1.7,1.7-1.7,4.4,0,6L18,48.5c1.7,1.7,4.4,1.7,6,0l14.5-14.6
			c3.8-3.8,3.8-9.9,0-13.6c-2.2-2.2-5.1-3.1-7.9-2.8c0.7,0.3,1.3,0.7,1.8,1.3c2.5,2.5,2.5,6.6,0,9.1L21.1,39.6L12.7,31z"/>
		<path class="st0" d="M14.2,29.5c-2.5-2.5-6.6-2.5-9.1,0c-1.2,1.2-1.8,2.7-1.9,4.2c-3.6-3.8-3.5-9.7,0.2-13.4
			c3.8-3.8,9.9-3.8,13.6,0l4,4l3.8-4c1.7-1.7,4.4-1.7,6,0s1.7,4.4,0,6l-9.8,9.9L14.2,29.5z"/>
	</g>
</g>
</svg>
