<?xml version="1.0" encoding="utf-8"?>
<!-- Generator: Adobe Illustrator 26.5.0, SVG Export Plug-In . SVG Version: 6.00 Build 0)  -->
<svg version="1.1" id="Layer_1" xmlns="http://www.w3.org/2000/svg" xmlns:xlink="http://www.w3.org/1999/xlink" x="0px" y="0px"
	 viewBox="0 0 280 294" style="enable-background:new 0 0 280 294;" xml:space="preserve">
<style type="text/css">
	.st0{fill:#FFFFFF;}
</style>
<g>
	<g>
		<circle class="st0" cx="105.44" cy="26.81" r="24.87"/>
		<circle class="st0" cx="172.65" cy="26.81" r="24.87"/>
		<path class="st0" d="M111.48,102.79c-5.46-5.46-14.32-5.46-19.79,0c-5.46,5.46-5.46,14.32,0,19.79l37.33,37.33
			c5.46,5.46,14.32,5.46,19.79,0l47.37-47.68c12.33-12.33,12.33-32.32,0-44.65c-7.09-7.09-16.71-10.09-25.95-9.03
			c2.18,1.01,4.22,2.42,6.02,4.21c8.22,8.22,8.22,21.54,0,29.76l-37.17,38.12L111.48,102.79z"/>
		<path class="st0" d="M116.46,97.81c-8.22-8.22-21.54-8.22-29.76,0c-3.82,3.82-5.86,8.74-6.13,13.74
			c-11.66-12.37-11.45-31.86,0.65-43.96c12.33-12.33,32.32-12.33,44.65,0l13.16,13.16l12.43-12.99c5.46-5.46,14.32-5.46,19.79,0
			c5.46,5.46,5.46,14.32,0,19.79l-32.19,32.48L116.46,97.81z"/>
	</g>
</g>
<g>
	<path class="st0" d="M32.34,281.66v4.19h4.99v1.09h-4.99v5.03h-1.22v-11.4h7.08v1.09H32.34z"/>
	<path class="st0" d="M49.67,290.94c-0.7,0.7-1.65,1.12-2.83,1.12s-2.15-0.42-2.85-1.12c-1.07-1.07-1.14-2.06-1.14-4.67
		s0.06-3.6,1.14-4.67c0.7-0.7,1.66-1.12,2.85-1.12s2.13,0.42,2.83,1.12c1.07,1.07,1.15,2.06,1.15,4.67S50.75,289.87,49.67,290.94z
		 M48.81,282.36c-0.53-0.53-1.2-0.8-1.97-0.8c-0.77,0-1.44,0.27-1.97,0.8c-0.72,0.74-0.8,1.57-0.8,3.91s0.08,3.17,0.8,3.91
		c0.53,0.53,1.2,0.8,1.97,0.8c0.77,0,1.44-0.27,1.97-0.8c0.72-0.74,0.8-1.57,0.8-3.91S49.53,283.1,48.81,282.36z"/>
	<path class="st0" d="M63.43,291.96l-2.59-5.06H58.1v5.06h-1.22v-11.4h4.37c1.98,0,3.38,1.2,3.38,3.17c0,1.67-1.01,2.75-2.48,3.06
		l2.71,5.17H63.43z M61.15,281.66H58.1v4.18h3.04c1.33,0,2.27-0.69,2.27-2.08S62.47,281.66,61.15,281.66z"/>
	<path class="st0" d="M84.41,291.96l-0.91-2.58h-4.98l-0.91,2.58h-1.3l4.19-11.4h1.02l4.18,11.4H84.41z M81.03,282.31l-2.15,6.02
		h4.26L81.03,282.31z"/>
	<path class="st0" d="M99.29,291.96v-8.66l-3.12,6.87h-1.04l-3.17-6.87v8.66h-1.22v-11.4h1.22l3.71,8.08l3.62-8.08h1.22v11.4H99.29z
		"/>
	<path class="st0" d="M113.64,291.96l-0.91-2.58h-4.98l-0.91,2.58h-1.3l4.19-11.4h1.02l4.18,11.4H113.64z M110.27,282.31l-2.15,6.02
		h4.26L110.27,282.31z"/>
	<path class="st0" d="M119.24,291.96v-1.15l5.7-9.16h-5.47v-1.09h6.85v1.02l-5.75,9.28h5.75v1.09H119.24z"/>
	<path class="st0" d="M132.07,291.96v-11.4h1.22v11.4H132.07z"/>
	<path class="st0" d="M147.05,291.96l-6.05-9.14v9.14h-1.22v-11.4h1.15l6.05,9.11v-9.11h1.22v11.4H147.05z"/>
	<path class="st0" d="M161.29,290.75c-0.8,0.88-1.87,1.31-3.04,1.31c-1.18,0-2.14-0.42-2.85-1.12c-1.07-1.07-1.14-2.06-1.14-4.67
		s0.06-3.6,1.14-4.67c0.71-0.7,1.67-1.12,2.85-1.12c2.14,0,3.67,1.44,3.99,3.41h-1.22c-0.32-1.46-1.34-2.32-2.77-2.32
		c-0.78,0-1.46,0.27-1.97,0.8c-0.72,0.74-0.8,1.57-0.8,3.91s0.08,3.17,0.8,3.91c0.51,0.53,1.18,0.8,1.97,0.8
		c0.83,0,1.63-0.34,2.16-0.98c0.46-0.58,0.64-1.2,0.64-2.06v-0.88h-2.8v-1.04h4.02v1.81C162.27,289.13,162.03,289.93,161.29,290.75z
		"/>
	<path class="st0" d="M179.72,287.27h-3.03v4.69h-1.22v-11.4h4.24c2.06,0,3.52,1.31,3.52,3.35S181.78,287.27,179.72,287.27z
		 M179.62,281.66h-2.93v4.53h2.93c1.42,0,2.4-0.77,2.4-2.27S181.05,281.66,179.62,281.66z"/>
	<path class="st0" d="M188.76,291.96v-11.4h7.08v1.09h-5.86v4.02h4.99v1.09h-4.99v4.11h5.86v1.09H188.76z"/>
	<path class="st0" d="M207.94,290.94c-0.7,0.7-1.65,1.12-2.83,1.12s-2.14-0.42-2.85-1.12c-1.07-1.07-1.14-2.06-1.14-4.67
		s0.06-3.6,1.14-4.67c0.71-0.7,1.67-1.12,2.85-1.12s2.13,0.42,2.83,1.12c1.07,1.07,1.15,2.06,1.15,4.67S209.02,289.87,207.94,290.94
		z M207.08,282.36c-0.53-0.53-1.2-0.8-1.97-0.8s-1.44,0.27-1.97,0.8c-0.72,0.74-0.8,1.57-0.8,3.91s0.08,3.17,0.8,3.91
		c0.53,0.53,1.2,0.8,1.97,0.8s1.44-0.27,1.97-0.8c0.72-0.74,0.8-1.57,0.8-3.91S207.8,283.1,207.08,282.36z"/>
	<path class="st0" d="M219.4,287.27h-3.03v4.69h-1.22v-11.4h4.24c2.06,0,3.52,1.31,3.52,3.35S221.46,287.27,219.4,287.27z
		 M219.3,281.66h-2.93v4.53h2.93c1.42,0,2.4-0.77,2.4-2.27S220.73,281.66,219.3,281.66z"/>
	<path class="st0" d="M228.44,291.96v-11.4h1.22v10.31h5.83v1.09H228.44z"/>
	<path class="st0" d="M240.81,291.96v-11.4h7.08v1.09h-5.86v4.02h4.99v1.09h-4.99v4.11h5.86v1.09H240.81z"/>
</g>
<g>
	<path class="st0" d="M2.44,201.76h9.28v16c2.29-0.91,5.07-1.36,8.32-1.36c2.88,0,5.57,0.39,8.08,1.16c2.51,0.77,4.68,1.97,6.52,3.6
		c1.84,1.63,3.29,3.72,4.36,6.28c1.07,2.56,1.6,5.63,1.6,9.2c0,3.73-0.57,6.91-1.72,9.52c-1.15,2.61-2.72,4.73-4.72,6.36
		c-2,1.63-4.39,2.8-7.16,3.52c-2.77,0.72-5.79,1.08-9.04,1.08c-2.72,0-5.44-0.23-8.16-0.68c-2.72-0.45-5.17-1.05-7.36-1.8V201.76z
		 M31,236.96c0-2.61-0.37-4.79-1.12-6.52c-0.75-1.73-1.72-3.12-2.92-4.16s-2.56-1.79-4.08-2.24c-1.52-0.45-3.08-0.68-4.68-0.68
		c-1.55,0-2.87,0.15-3.96,0.44c-1.09,0.29-1.93,0.57-2.52,0.84v24.56c1.07,0.43,2.2,0.71,3.4,0.84c1.2,0.13,2.23,0.2,3.08,0.2
		c1.6,0,3.16-0.2,4.68-0.6s2.88-1.11,4.08-2.12c1.2-1.01,2.17-2.37,2.92-4.08C30.63,241.73,31,239.57,31,236.96z"/>
	<path class="st0" d="M84.92,254c-0.96,0.43-2.11,0.84-3.44,1.24c-1.33,0.4-2.8,0.73-4.4,1s-3.31,0.48-5.12,0.64
		c-1.81,0.16-3.65,0.24-5.52,0.24c-2.56,0-5-0.25-7.32-0.76c-2.32-0.51-4.36-1.37-6.12-2.6c-1.76-1.23-3.17-2.87-4.24-4.92
		c-1.07-2.05-1.6-4.65-1.6-7.8v-23.76h9.28v23.36c0,2.08,0.29,3.76,0.88,5.04c0.59,1.28,1.35,2.25,2.28,2.92
		c0.93,0.67,2,1.11,3.2,1.32c1.2,0.21,2.44,0.32,3.72,0.32c1.76,0,3.45-0.15,5.08-0.44c1.63-0.29,2.97-0.71,4.04-1.24v-31.28h9.28
		V254z"/>
	<path class="st0" d="M130.52,254.64c-2.24,0.75-4.71,1.35-7.4,1.8c-2.69,0.45-5.4,0.68-8.12,0.68c-3.25,0-6.27-0.36-9.04-1.08
		c-2.77-0.72-5.16-1.89-7.16-3.52c-2-1.63-3.57-3.75-4.72-6.36c-1.15-2.61-1.72-5.79-1.72-9.52c0-3.57,0.53-6.64,1.6-9.2
		c1.07-2.56,2.52-4.65,4.36-6.28c1.84-1.63,4.01-2.83,6.52-3.6c2.51-0.77,5.2-1.16,8.08-1.16c3.25,0,6.03,0.45,8.32,1.36v-16h9.28
		V254.64z M101.88,236.96c0,2.61,0.37,4.77,1.12,6.48c0.75,1.71,1.72,3.07,2.92,4.08c1.2,1.01,2.57,1.72,4.12,2.12
		c1.55,0.4,3.12,0.6,4.72,0.6c0.85,0,1.88-0.08,3.08-0.24c1.2-0.16,2.33-0.45,3.4-0.88v-24.4c-0.59-0.27-1.43-0.56-2.52-0.88
		c-1.09-0.32-2.44-0.48-4.04-0.48c-1.55,0-3.09,0.23-4.64,0.68c-1.55,0.45-2.92,1.2-4.12,2.24s-2.17,2.43-2.92,4.16
		C102.25,232.17,101.88,234.35,101.88,236.96z"/>
	<path class="st0" d="M176.04,254.64c-2.24,0.75-4.71,1.35-7.4,1.8c-2.69,0.45-5.4,0.68-8.12,0.68c-3.25,0-6.27-0.36-9.04-1.08
		c-2.77-0.72-5.16-1.89-7.16-3.52c-2-1.63-3.57-3.75-4.72-6.36c-1.15-2.61-1.72-5.79-1.72-9.52c0-3.57,0.53-6.64,1.6-9.2
		c1.07-2.56,2.52-4.65,4.36-6.28c1.84-1.63,4.01-2.83,6.52-3.6c2.51-0.77,5.2-1.16,8.08-1.16c3.25,0,6.03,0.45,8.32,1.36v-16h9.28
		V254.64z M147.4,236.96c0,2.61,0.37,4.77,1.12,6.48c0.75,1.71,1.72,3.07,2.92,4.08c1.2,1.01,2.57,1.72,4.12,2.12s3.12,0.6,4.72,0.6
		c0.85,0,1.88-0.08,3.08-0.24c1.2-0.16,2.33-0.45,3.4-0.88v-24.4c-0.59-0.27-1.43-0.56-2.52-0.88c-1.09-0.32-2.44-0.48-4.04-0.48
		c-1.55,0-3.09,0.23-4.64,0.68c-1.55,0.45-2.92,1.2-4.12,2.24c-1.2,1.04-2.17,2.43-2.92,4.16
		C147.77,232.17,147.4,234.35,147.4,236.96z"/>
	<path class="st0" d="M183.8,203.76c0-1.6,0.56-2.96,1.68-4.08s2.48-1.68,4.08-1.68c1.55,0,2.88,0.56,4,1.68s1.68,2.48,1.68,4.08
		c0,1.55-0.56,2.88-1.68,4s-2.45,1.68-4,1.68c-1.6,0-2.96-0.56-4.08-1.68S183.8,205.31,183.8,203.76z M184.92,217.28h9.28v38.88
		h-9.28V217.28z"/>
	<path class="st0" d="M239.72,235.2c0,0.53-0.04,1.17-0.12,1.92c-0.08,0.75-0.17,1.44-0.28,2.08H210.6c0,3.95,1.2,6.77,3.6,8.48
		c2.4,1.71,5.6,2.56,9.6,2.56c2.51,0,4.96-0.21,7.36-0.64c2.4-0.43,4.32-1.01,5.76-1.76l1.84,6.64c-2.03,0.85-4.35,1.51-6.96,1.96
		c-2.61,0.45-5.33,0.68-8.16,0.68c-3.36,0-6.44-0.37-9.24-1.12c-2.8-0.75-5.23-1.93-7.28-3.56c-2.05-1.63-3.64-3.75-4.76-6.36
		c-1.12-2.61-1.68-5.79-1.68-9.52c0-3.68,0.51-6.81,1.52-9.4c1.01-2.59,2.41-4.69,4.2-6.32c1.79-1.63,3.88-2.8,6.28-3.52
		c2.4-0.72,5.01-1.08,7.84-1.08c2.88,0,5.49,0.36,7.84,1.08c2.35,0.72,4.36,1.85,6.04,3.4c1.68,1.55,2.99,3.51,3.92,5.88
		C239.25,228.97,239.72,231.84,239.72,235.2z M212.68,234h17.12c0-4.16-0.83-7.07-2.48-8.72c-1.65-1.65-3.89-2.48-6.72-2.48
		c-1.33,0-2.6,0.19-3.8,0.56c-1.2,0.37-2.27,0.97-3.2,1.8c-0.93,0.83-1.67,1.91-2.2,3.24c-0.53,1.33-0.8,2.99-0.8,4.96L212.68,234z"
		/>
	<path class="st0" d="M246.12,247.36c1.71,0.8,3.63,1.43,5.76,1.88c2.13,0.45,4.45,0.68,6.96,0.68c1.23,0,2.4-0.08,3.52-0.24
		s2.11-0.44,2.96-0.84c0.85-0.4,1.53-0.91,2.04-1.52c0.51-0.61,0.76-1.37,0.76-2.28c0-1.28-0.56-2.25-1.68-2.92
		c-1.12-0.67-2.51-1.2-4.16-1.6c-1.65-0.4-3.47-0.8-5.44-1.2c-1.97-0.4-3.79-1-5.44-1.8c-1.65-0.8-3.04-1.92-4.16-3.36
		s-1.68-3.41-1.68-5.92c0-2.13,0.43-3.96,1.28-5.48c0.85-1.52,2.01-2.76,3.48-3.72c1.47-0.96,3.23-1.65,5.28-2.08
		c2.05-0.43,4.28-0.64,6.68-0.64c2.72,0,5.21,0.25,7.48,0.76c2.27,0.51,4.33,1.19,6.2,2.04l-1.36,6.96
		c-1.55-0.85-3.27-1.53-5.16-2.04c-1.89-0.51-4.04-0.76-6.44-0.76c-1.07,0-2.08,0.08-3.04,0.24c-0.96,0.16-1.81,0.43-2.56,0.8
		c-0.75,0.37-1.35,0.85-1.8,1.44c-0.45,0.59-0.68,1.31-0.68,2.16c0,1.28,0.56,2.24,1.68,2.88c1.12,0.64,2.52,1.16,4.2,1.56
		c1.68,0.4,3.49,0.79,5.44,1.16c1.95,0.37,3.76,0.97,5.44,1.8c1.68,0.83,3.08,1.97,4.2,3.44c1.12,1.47,1.68,3.48,1.68,6.04
		c0,2.4-0.51,4.37-1.52,5.92c-1.01,1.55-2.33,2.77-3.96,3.68c-1.63,0.91-3.51,1.55-5.64,1.92c-2.13,0.37-4.32,0.56-6.56,0.56
		c-3.04,0-5.84-0.25-8.4-0.76c-2.56-0.51-4.77-1.16-6.64-1.96L246.12,247.36z"/>
</g>
</svg>
